# xmcd CD database file
#
# Track frame offsets:
#	183
#	11473
#	25548
#	42485
#	57375
#	70798
#	97798
#	106703
#	117345
#	132233
#	144168
#	159493
#	167233
#
# Disc length: 2442 seconds
#
# Revision: 0
# Processed by: cddbd v1.5PL3 Copyright (c) Steve Scherf et al.
# Submitted via: CDex 1.51
#
DISCID=9d09880d
DTITLE=Bob Brozman - Snapping the strings
DYEAR=1983
DGENRE=Blues
TTITLE0=Big thumb strut
TTITLE1=Rocky road
TTITLE2=All night walking
TTITLE3=I've got that thing
TTITLE4=Big boy stomp
TTITLE5=Live at Moraga Concert Hall, Santa Cruz, Ca - a) Patches, b) I lost my gal from Memphis
TTITLE6=Zonky
TTITLE7=Anniversary waltz
TTITLE8=Hard times blues
TTITLE9=Maui aloha favorites
TTITLE10=One steady roll
TTITLE11=Sweet Georgia Brown
TTITLE12=If I could be with you
EXTD=YEAR: 1983
EXTT0=
EXTT1=
EXTT2=
EXTT3=
EXTT4=
EXTT5=
EXTT6=
EXTT7=
EXTT8=
EXTT9=
EXTT10=
EXTT11=
EXTT12=
PLAYORDER=
